# xmcd
#
# Track frame offsets:
# 150
# 10071
# 26882
# 41617
# 62198
# 86864
# 104048
# 125506
# 154728
# 171030
# 187701
# 202951
# 219187
# 254348
#
# Disc length: 3638 seconds
#
# Revision: 0
# Processed by: cddbd v1.5PL3 Copyright (c) Steve Scherf et al.
# Submitted via: Axialis_AX_CDPlayer 2.6
#
DISCID=bc0e340e
DTITLE=Eric Clapton - Unplugged
DYEAR=1900
DGENRE=
TTITLE0=Signe
TTITLE1=Before Yoy Accuse Me
TTITLE2=Hey Hey
TTITLE3=Tears in Heaven
TTITLE4=Lonely Stranger
TTITLE5=Nobody Knows You When - You're Down and Out
TTITLE6=Layla
TTITLE7=Running on Faith
TTITLE8=Walkin' Blues
TTITLE9=Alberta
TTITLE10=San Francisco Bay Blues
TTITLE11=Malted Milk
TTITLE12=Old Love
TTITLE13=Rollin' and Tumblin'
EXTD=
EXTT0=
EXTT1=
EXTT2=
EXTT3=
EXTT4=
EXTT5=
EXTT6=
EXTT7=
EXTT8=
EXTT9=
EXTT10=
EXTT11=
EXTT12=
EXTT13=
PLAYORDER=
